<svg width="112" height="112" viewBox="0 0 112 112" fill="none" xmlns="http://www.w3.org/2000/svg">
<g id="linkedin">
<path id="Vector" d="M95.5266 9.33333H16.4733C15.5846 9.32099 14.7023 9.48382 13.8766 9.81252C13.0509 10.1412 12.298 10.6294 11.661 11.2491C11.024 11.8687 10.5153 12.6079 10.1639 13.4242C9.81256 14.2405 9.62545 15.118 9.61328 16.0067V95.9933C9.62545 96.882 9.81256 97.7595 10.1639 98.5758C10.5153 99.3921 11.024 100.131 11.661 100.751C12.298 101.371 13.0509 101.859 13.8766 102.187C14.7023 102.516 15.5846 102.679 16.4733 102.667H95.5266C96.4152 102.679 97.2976 102.516 98.1233 102.187C98.949 101.859 99.7019 101.371 100.339 100.751C100.976 100.131 101.485 99.3921 101.836 98.5758C102.187 97.7595 102.374 96.882 102.387 95.9933V16.0067C102.374 15.118 102.187 14.2405 101.836 13.4242C101.485 12.6079 100.976 11.8687 100.339 11.2491C99.7019 10.6294 98.949 10.1412 98.1233 9.81252C97.2976 9.48382 96.4152 9.32099 95.5266 9.33333ZM37.7533 87.4533H23.7533V45.4533H37.7533V87.4533ZM30.7533 39.5733C28.8225 39.5733 26.9708 38.8063 25.6055 37.4411C24.2403 36.0758 23.4733 34.2241 23.4733 32.2933C23.4733 30.3626 24.2403 28.5109 25.6055 27.1456C26.9708 25.7803 28.8225 25.0133 30.7533 25.0133C31.7785 24.8971 32.8168 24.9987 33.8 25.3115C34.7833 25.6243 35.6894 26.1412 36.459 26.8285C37.2286 27.5158 37.8444 28.3578 38.266 29.2996C38.6876 30.2413 38.9056 31.2615 38.9056 32.2933C38.9056 33.3251 38.6876 34.3453 38.266 35.2871C37.8444 36.2288 37.2286 37.0709 36.459 37.7582C35.6894 38.4454 34.7833 38.9624 33.8 39.2752C32.8168 39.588 31.7785 39.6896 30.7533 39.5733ZM88.2466 87.4533H74.2466V64.9133C74.2466 59.2667 72.2399 55.58 67.1533 55.58C65.579 55.5915 64.0462 56.0853 62.7612 56.9948C61.4762 57.9043 60.5009 59.1858 59.9666 60.6667C59.6014 61.7635 59.4432 62.9187 59.5 64.0733V87.4067H45.4999C45.4999 87.4067 45.4999 49.2333 45.4999 45.4067H59.5V51.3333C60.7718 49.1265 62.6215 47.3084 64.85 46.0749C67.0785 44.8415 69.6013 44.2393 72.1466 44.3333C81.4799 44.3333 88.2466 50.3533 88.2466 63.28V87.4533Z" fill="black"/>
</g>
</svg>
