<svg width="25" height="24" viewBox="0 0 25 24" fill="none" xmlns="http://www.w3.org/2000/svg">
<g id="Icon">
<path id="icon" fill-rule="evenodd" clip-rule="evenodd" d="M12.5 2C6.98 2 2.5 6.48 2.5 12C2.5 17.52 6.98 22 12.5 22C18.02 22 22.5 17.52 22.5 12C22.5 6.48 18.02 2 12.5 2ZM18.86 16.83C17.43 15.09 13.96 14.5 12.5 14.5C11.04 14.5 7.57 15.09 6.14 16.83C5.12 15.49 4.5 13.82 4.5 12C4.5 7.59 8.09 4 12.5 4C16.91 4 20.5 7.59 20.5 12C20.5 13.82 19.88 15.49 18.86 16.83ZM9 9.5C9 7.56 10.56 6 12.5 6C14.44 6 16 7.56 16 9.5C16 11.44 14.44 13 12.5 13C10.56 13 9 11.44 9 9.5Z" fill="#464741"/>
</g>
</svg>
