<svg width="112" height="112" viewBox="0 0 112 112" fill="none" xmlns="http://www.w3.org/2000/svg">
<g id="github">
<path id="Vector" d="M55.9998 10.4846C44.9187 10.4851 34.1993 14.4285 25.7596 21.6092C17.32 28.79 11.7108 38.7395 9.93576 49.6775C8.16071 60.6155 10.3356 71.8283 16.0713 81.3095C21.807 90.7906 30.7293 97.9215 41.2416 101.426C43.5749 101.835 44.4499 100.435 44.4499 99.2096C44.4499 98.1013 44.3915 94.4262 44.3915 90.5179C32.6665 92.6762 29.6331 87.6597 28.6998 85.0347C27.6642 82.4817 26.0224 80.2193 23.9165 78.4429C22.2831 77.5679 19.9498 75.4096 23.8581 75.3514C25.3504 75.5133 26.7817 76.0326 28.0307 76.8652C29.2797 77.6979 30.3096 78.8193 31.0331 80.1346C31.6714 81.2812 32.5296 82.2906 33.5587 83.1049C34.5877 83.9192 35.7674 84.5225 37.03 84.8801C38.2926 85.2378 39.6133 85.3428 40.9166 85.1891C42.2198 85.0354 43.4799 84.6261 44.6247 83.9846C44.8267 81.6121 45.8841 79.394 47.5998 77.7431C37.2165 76.5764 26.3665 72.5512 26.3665 54.7014C26.3009 50.0634 28.0123 45.5761 31.1498 42.1597C29.7231 38.1288 29.89 33.7051 31.6165 29.7931C31.6165 29.7931 35.5247 28.568 44.4498 34.5764C52.0858 32.4763 60.1471 32.4763 67.7831 34.5764C76.708 28.5097 80.6165 29.7931 80.6165 29.7931C82.3431 33.705 82.5101 38.1288 81.0831 42.1597C84.23 45.5703 85.943 50.0615 85.8665 54.7014C85.8665 72.6096 74.958 76.5764 64.5748 77.7431C65.6885 78.8719 66.5462 80.2271 67.0898 81.7168C67.6333 83.2065 67.8499 84.7956 67.7248 86.3764C67.7248 92.6182 67.6664 97.6347 67.6664 99.2097C67.6664 100.435 68.5414 101.893 70.8748 101.426C81.3685 97.8931 90.2651 90.7455 95.9764 81.2595C101.688 71.7735 103.842 60.5665 102.055 49.639C100.267 38.7116 94.6546 28.775 86.2186 21.603C77.7827 14.431 67.0724 10.4904 55.9998 10.4846Z" fill="black"/>
</g>
</svg>
